# xmcd CD database file
#
# Track frame offsets:
#	183
#	16020
#	28583
#	48580
#	59438
#	71948
#	81893
#	96388
#	109118
#	123235
#	136560
#	157970
#	176598
#
# Disc length: 2554 seconds
#
# Revision: 1
# Processed by: cddbd v1.5.2PL0 Copyright (c) Steve Scherf et al.
# Submitted via: jetAudio 7
#
DISCID=a709f80d
DTITLE=Nils Tuxen - American Dreams On Steel Guitar
DYEAR=1900
DGENRE=Country
TTITLE0=To All The Girls I Loved Before
TTITLE1=San Antonio Rose
TTITLE2=Islands In The Stream
TTITLE3=Hello Mary Lou
TTITLE4=Stand By Your Man
TTITLE5=Jambalaya
TTITLE6=Are You Lonesome Tonght
TTITLE7=Memphis Tennessee
TTITLE8=Love Me Tender
TTITLE9=Pretty Woman
TTITLE10=I Can't Stop Loving You
TTITLE11=Twin Peaks Theme
TTITLE12=Let Your Love Flow
EXTD=
EXTT0=
EXTT1=
EXTT2=
EXTT3=
EXTT4=
EXTT5=
EXTT6=
EXTT7=
EXTT8=
EXTT9=
EXTT10=
EXTT11=
EXTT12=
PLAYORDER=
